Coordinates
version=1
nRows=11
nColumns=33
inDegrees=yes

Units are S.I. units (second, meters, Newtons, ...)
Angles are in degrees.

endheader
time	ground_thorax_rot_x	ground_thorax_rot_y	ground_thorax_rot_z	ground_thorax_tx	ground_thorax_ty	ground_thorax_tz	clav_prot_r	clav_elev_r	scapula_abduction_r	scapula_elevation_r	scapula_upward_rot_r	scapula_winging_r	shoulder_elv_r	plane_of_elev_r	axial_rot_r	elbow_flexion_r	pro_sup_r	wrist_flex_r	wrist_dev_r	clav_prot_l	clav_elev_l	scapula_abduction_l	scapula_elevation_l	scapula_upward_rot_l	scapula_winging_l	shoulder_elv_l	plane_of_elev_l	axial_rot_l	elbow_flexion_l	pro_sup_l	wrist_flex_l	wrist_dev_l	
6.2500	-28.591136	-30.564809	41.822275	-85.362241	853.218257	-47.768606	27.358983	-45.000000	41.475261	-45.000000	-45.000000	-2626.719499	-2261.888895	158.021900	31.038523	3239.013418	-201.254019	13.770755	14.842831	-0.578350	33.261138	-33.175611	-45.000000	-45.000000	-3150.459817	-2966.675329	133.172112	-106.941523	348.072251	32.787781	14.913030	-17.739114	
6.2600	-28.648343	-30.451672	41.635403	-86.480157	853.539718	-47.779938	27.356579	-45.000000	41.454673	-45.000000	-45.000000	-2626.783928	-2261.865748	158.039166	31.175759	3239.014188	-201.536476	13.821019	14.833468	-0.602066	33.260045	-33.188554	-45.000000	-45.000000	-3150.438998	-2966.695459	133.187161	-106.974587	348.026242	32.650258	14.954571	-17.778823	
6.2700	-28.701008	-30.342732	41.453917	-87.572745	853.847938	-47.782455	27.347237	-45.000000	41.440468	-45.000000	-45.000000	-2626.838646	-2261.838987	158.061397	31.312413	3239.014365	-201.803189	13.867645	14.826455	-0.612811	33.263563	-33.182320	-45.000000	-45.000000	-3150.434891	-2966.711691	133.206620	-107.021969	347.989100	32.517599	14.977257	-17.804023	
6.2800	-28.763936	-30.229203	41.264348	-88.639310	854.143408	-47.778559	27.342355	-45.000000	41.421844	-45.000000	-45.000000	-2626.893473	-2261.820077	158.075452	31.453414	3239.018757	-202.051801	13.921869	14.815105	-0.633155	33.264605	-33.183005	-45.000000	-45.000000	-3150.419226	-2966.729385	133.218002	-107.073288	347.951538	32.392968	15.009541	-17.842323	
6.2900	-28.824095	-30.116645	41.084022	-89.679887	854.426431	-47.770711	27.329823	-45.000000	41.406973	-45.000000	-45.000000	-2626.942018	-2261.796666	158.100002	31.588457	3239.015632	-202.278113	13.974240	14.809374	-0.636587	33.270795	-33.163408	-45.000000	-45.000000	-3150.424083	-2966.739219	133.233093	-107.140150	347.929567	32.280517	15.017057	-17.866031	
6.3000	-28.895949	-30.000368	40.898245	-90.694615	854.696879	-47.761284	27.322904	-45.000000	41.386076	-45.000000	-45.000000	-2626.993481	-2261.781828	158.118130	31.727060	3239.014358	-202.482193	14.037737	14.798887	-0.651152	33.274612	-33.152368	-45.000000	-45.000000	-3150.415789	-2966.749738	133.240073	-107.211680	347.909842	32.182393	15.034798	-17.906371	
6.3100	-28.965236	-29.885341	40.723896	-91.684297	854.954394	-47.752482	27.310373	-45.000000	41.365983	-45.000000	-45.000000	-2627.042738	-2261.760581	158.144547	31.860340	3239.004946	-202.660777	14.100582	14.794854	-0.651412	33.280834	-33.129638	-45.000000	-45.000000	-3150.421794	-2966.757333	133.251284	-107.295125	347.901449	32.101792	15.032117	-17.934723	
6.3200	-29.041351	-29.767793	40.550719	-92.649437	855.198302	-47.746259	27.304500	-45.000000	41.340956	-45.000000	-45.000000	-2627.096727	-2261.744097	158.166735	31.996116	3238.998674	-202.816437	14.175437	14.783429	-0.665188	33.283433	-33.121536	-45.000000	-45.000000	-3150.412173	-2966.772106	133.258003	-107.379479	347.888968	32.038367	15.044716	-17.981567	
6.3300	-29.113662	-29.653927	40.390957	-93.591217	855.428063	-47.744243	27.295413	-45.000000	41.317419	-45.000000	-45.000000	-2627.147550	-2261.721486	158.196464	32.130289	3238.989033	-202.947799	14.248379	14.777492	-0.666852	33.286692	-33.105399	-45.000000	-45.000000	-3150.413724	-2966.787953	133.272127	-107.474404	347.883667	31.991904	15.038843	-18.016138	
6.3400	-29.193266	-29.539394	40.229556	-94.510453	855.643137	-47.747630	27.291178	-45.000000	41.290353	-45.000000	-45.000000	-2627.201135	-2261.703869	158.221777	32.268477	3238.982696	-203.058928	14.334490	14.762025	-0.681357	33.288890	-33.099657	-45.000000	-45.000000	-3150.401834	-2966.808186	133.281930	-107.570612	347.874139	31.959253	15.048343	-18.070070	
6.3500	-29.273636	-29.425426	40.073801	-95.408060	855.843150	-47.757114	27.284148	-45.000000	41.262264	-45.000000	-45.000000	-2627.254389	-2261.681240	158.249748	32.405943	3238.971341	-203.146694	14.419161	14.753566	-0.685904	33.290158	-33.088597	-45.000000	-45.000000	-3150.397557	-2966.827627	133.293960	-107.673124	347.871416	31.939747	15.040328	-18.113857	
